<svg width="34" height="34" viewBox="0 0 34 34" fill="none" xmlns="http://www.w3.org/2000/svg">
<path d="M4.95831 6.375H7.16616C8.15176 6.375 8.64456 6.375 9.01558 6.64241C9.38659 6.90982 9.54242 7.37733 9.8541 8.31235L10.625 10.625" stroke="black" stroke-linecap="round"/>
<path d="M24.7916 24.791H11.4054C11.1983 24.791 11.0948 24.791 11.0162 24.7822C10.1838 24.689 9.61355 23.8978 9.78837 23.0787C9.80486 23.0013 9.83761 22.9032 9.9031 22.7067C9.97582 22.4885 10.0122 22.3794 10.0523 22.2832C10.4636 21.2978 11.3939 20.6271 12.4588 20.5487C12.5628 20.541 12.6778 20.541 12.9078 20.541H20.5416" stroke="black" stroke-linecap="round" stroke-linejoin="round"/>
<path d="M20.0865 20.5417H15.7783C13.966 20.5417 13.0599 20.5417 12.3502 20.0737C11.6406 19.6058 11.2836 18.773 10.5697 17.1072L10.3306 16.5492C9.18381 13.8733 8.61041 12.5354 9.24027 11.5802C9.87012 10.625 11.3257 10.625 14.2369 10.625H21.7182C24.9751 10.625 26.6036 10.625 27.2178 11.6834C27.8321 12.7418 27.024 14.1557 25.4082 16.9836L25.0066 17.6865C24.2104 19.0795 23.8125 19.7761 23.1529 20.1589C22.4933 20.5417 21.691 20.5417 20.0865 20.5417Z" stroke="black" stroke-linecap="round"/>
<path d="M24.0834 29.7493C24.8658 29.7493 25.5 29.1151 25.5 28.3327C25.5 27.5503 24.8658 26.916 24.0834 26.916C23.301 26.916 22.6667 27.5503 22.6667 28.3327C22.6667 29.1151 23.301 29.7493 24.0834 29.7493Z" fill="black"/>
<path d="M12.75 29.7493C13.5324 29.7493 14.1666 29.1151 14.1666 28.3327C14.1666 27.5503 13.5324 26.916 12.75 26.916C11.9676 26.916 11.3333 27.5503 11.3333 28.3327C11.3333 29.1151 11.9676 29.7493 12.75 29.7493Z" fill="black"/>
</svg>
