<svg width="18" height="18" viewBox="0 0 18 18" fill="none" xmlns="http://www.w3.org/2000/svg">
<path d="M0.625 8.54167C0.625 5.39917 0.625 3.8275 1.60167 2.85167C2.57833 1.87583 4.14917 1.875 7.29167 1.875H10.625C13.7675 1.875 15.3392 1.875 16.315 2.85167C17.2908 3.82833 17.2917 5.39917 17.2917 8.54167V10.2083C17.2917 13.3508 17.2917 14.9225 16.315 15.8983C15.3383 16.8742 13.7675 16.875 10.625 16.875H7.29167C4.14917 16.875 2.5775 16.875 1.60167 15.8983C0.625833 14.9217 0.625 13.3508 0.625 10.2083V8.54167Z" stroke="black" stroke-width="1.25"/>
<path d="M4.79199 1.875V0.625M13.1253 1.875V0.625M1.04199 6.04167H16.8753" stroke="black" stroke-width="1.25" stroke-linecap="round"/>
<path d="M13.958 12.7087C13.958 12.9297 13.8702 13.1416 13.7139 13.2979C13.5577 13.4542 13.3457 13.542 13.1247 13.542C12.9037 13.542 12.6917 13.4542 12.5354 13.2979C12.3791 13.1416 12.2913 12.9297 12.2913 12.7087C12.2913 12.4876 12.3791 12.2757 12.5354 12.1194C12.6917 11.9631 12.9037 11.8753 13.1247 11.8753C13.3457 11.8753 13.5577 11.9631 13.7139 12.1194C13.8702 12.2757 13.958 12.4876 13.958 12.7087ZM13.958 9.37533C13.958 9.59634 13.8702 9.8083 13.7139 9.96458C13.5577 10.1209 13.3457 10.2087 13.1247 10.2087C12.9037 10.2087 12.6917 10.1209 12.5354 9.96458C12.3791 9.8083 12.2913 9.59634 12.2913 9.37533C12.2913 9.15431 12.3791 8.94235 12.5354 8.78607C12.6917 8.62979 12.9037 8.54199 13.1247 8.54199C13.3457 8.54199 13.5577 8.62979 13.7139 8.78607C13.8702 8.94235 13.958 9.15431 13.958 9.37533ZM9.79134 12.7087C9.79134 12.9297 9.70354 13.1416 9.54726 13.2979C9.39098 13.4542 9.17902 13.542 8.95801 13.542C8.73699 13.542 8.52503 13.4542 8.36875 13.2979C8.21247 13.1416 8.12467 12.9297 8.12467 12.7087C8.12467 12.4876 8.21247 12.2757 8.36875 12.1194C8.52503 11.9631 8.73699 11.8753 8.95801 11.8753C9.17902 11.8753 9.39098 11.9631 9.54726 12.1194C9.70354 12.2757 9.79134 12.4876 9.79134 12.7087ZM9.79134 9.37533C9.79134 9.59634 9.70354 9.8083 9.54726 9.96458C9.39098 10.1209 9.17902 10.2087 8.95801 10.2087C8.73699 10.2087 8.52503 10.1209 8.36875 9.96458C8.21247 9.8083 8.12467 9.59634 8.12467 9.37533C8.12467 9.15431 8.21247 8.94235 8.36875 8.78607C8.52503 8.62979 8.73699 8.54199 8.95801 8.54199C9.17902 8.54199 9.39098 8.62979 9.54726 8.78607C9.70354 8.94235 9.79134 9.15431 9.79134 9.37533ZM5.62467 12.7087C5.62467 12.9297 5.53688 13.1416 5.3806 13.2979C5.22432 13.4542 5.01235 13.542 4.79134 13.542C4.57033 13.542 4.35837 13.4542 4.20209 13.2979C4.04581 13.1416 3.95801 12.9297 3.95801 12.7087C3.95801 12.4876 4.04581 12.2757 4.20209 12.1194C4.35837 11.9631 4.57033 11.8753 4.79134 11.8753C5.01235 11.8753 5.22432 11.9631 5.3806 12.1194C5.53688 12.2757 5.62467 12.4876 5.62467 12.7087ZM5.62467 9.37533C5.62467 9.59634 5.53688 9.8083 5.3806 9.96458C5.22432 10.1209 5.01235 10.2087 4.79134 10.2087C4.57033 10.2087 4.35837 10.1209 4.20209 9.96458C4.04581 9.8083 3.95801 9.59634 3.95801 9.37533C3.95801 9.15431 4.04581 8.94235 4.20209 8.78607C4.35837 8.62979 4.57033 8.54199 4.79134 8.54199C5.01235 8.54199 5.22432 8.62979 5.3806 8.78607C5.53688 8.94235 5.62467 9.15431 5.62467 9.37533Z" fill="black"/>
</svg>
