<svg width="21" height="21" viewBox="0 0 21 21" fill="none" xmlns="http://www.w3.org/2000/svg">
<rect width="18" height="18" transform="translate(0 2.15039)" fill="white"/>
<path d="M1.50024 11.1504C1.50024 8.32214 1.50024 6.90764 2.37924 6.02939C3.25824 5.15114 4.67199 5.15039 7.50024 5.15039H10.5002C13.3285 5.15039 14.743 5.15039 15.6212 6.02939C16.4995 6.90839 16.5002 8.32214 16.5002 11.1504V12.6504C16.5002 15.4786 16.5002 16.8931 15.6212 17.7714C14.7422 18.6496 13.3285 18.6504 10.5002 18.6504H7.50024C4.67199 18.6504 3.25749 18.6504 2.37924 17.7714C1.50099 16.8924 1.50024 15.4786 1.50024 12.6504V11.1504Z" stroke="black" stroke-width="1.25"/>
<path d="M5.25049 5.15039V4.02539M12.7505 5.15039V4.02539M1.87549 8.90039H16.1255" stroke="black" stroke-width="1.25" stroke-linecap="round"/>
<path d="M13.5 14.9004C13.5 15.0993 13.421 15.2901 13.2803 15.4307C13.1397 15.5714 12.9489 15.6504 12.75 15.6504C12.5511 15.6504 12.3603 15.5714 12.2197 15.4307C12.079 15.2901 12 15.0993 12 14.9004C12 14.7015 12.079 14.5107 12.2197 14.3701C12.3603 14.2294 12.5511 14.1504 12.75 14.1504C12.9489 14.1504 13.1397 14.2294 13.2803 14.3701C13.421 14.5107 13.5 14.7015 13.5 14.9004ZM13.5 11.9004C13.5 12.0993 13.421 12.2901 13.2803 12.4307C13.1397 12.5714 12.9489 12.6504 12.75 12.6504C12.5511 12.6504 12.3603 12.5714 12.2197 12.4307C12.079 12.2901 12 12.0993 12 11.9004C12 11.7015 12.079 11.5107 12.2197 11.3701C12.3603 11.2294 12.5511 11.1504 12.75 11.1504C12.9489 11.1504 13.1397 11.2294 13.2803 11.3701C13.421 11.5107 13.5 11.7015 13.5 11.9004ZM9.75 14.9004C9.75 15.0993 9.67098 15.2901 9.53033 15.4307C9.38968 15.5714 9.19891 15.6504 9 15.6504C8.80109 15.6504 8.61032 15.5714 8.46967 15.4307C8.32902 15.2901 8.25 15.0993 8.25 14.9004C8.25 14.7015 8.32902 14.5107 8.46967 14.3701C8.61032 14.2294 8.80109 14.1504 9 14.1504C9.19891 14.1504 9.38968 14.2294 9.53033 14.3701C9.67098 14.5107 9.75 14.7015 9.75 14.9004ZM9.75 11.9004C9.75 12.0993 9.67098 12.2901 9.53033 12.4307C9.38968 12.5714 9.19891 12.6504 9 12.6504C8.80109 12.6504 8.61032 12.5714 8.46967 12.4307C8.32902 12.2901 8.25 12.0993 8.25 11.9004C8.25 11.7015 8.32902 11.5107 8.46967 11.3701C8.61032 11.2294 8.80109 11.1504 9 11.1504C9.19891 11.1504 9.38968 11.2294 9.53033 11.3701C9.67098 11.5107 9.75 11.7015 9.75 11.9004ZM6 14.9004C6 15.0993 5.92098 15.2901 5.78033 15.4307C5.63968 15.5714 5.44891 15.6504 5.25 15.6504C5.05109 15.6504 4.86032 15.5714 4.71967 15.4307C4.57902 15.2901 4.5 15.0993 4.5 14.9004C4.5 14.7015 4.57902 14.5107 4.71967 14.3701C4.86032 14.2294 5.05109 14.1504 5.25 14.1504C5.44891 14.1504 5.63968 14.2294 5.78033 14.3701C5.92098 14.5107 6 14.7015 6 14.9004ZM6 11.9004C6 12.0993 5.92098 12.2901 5.78033 12.4307C5.63968 12.5714 5.44891 12.6504 5.25 12.6504C5.05109 12.6504 4.86032 12.5714 4.71967 12.4307C4.57902 12.2901 4.5 12.0993 4.5 11.9004C4.5 11.7015 4.57902 11.5107 4.71967 11.3701C4.86032 11.2294 5.05109 11.1504 5.25 11.1504C5.44891 11.1504 5.63968 11.2294 5.78033 11.3701C5.92098 11.5107 6 11.7015 6 11.9004Z" fill="black"/>
<path d="M15.4028 1.00391C15.6073 1.0192 15.8058 1.08 15.9839 1.18164L16.0718 1.23535L16.1548 1.29688C16.3425 1.44502 16.4894 1.63955 16.5796 1.8623L16.5786 1.86328L16.7661 2.31348L16.7681 2.31641C16.9898 2.85524 17.4094 3.28861 17.9409 3.52734H17.9399L18.4771 3.7666L18.4878 3.77148C18.6696 3.8552 18.8305 3.97667 18.9604 4.12695L19.0806 4.28711L19.1753 4.46191C19.2577 4.64301 19.3013 4.84052 19.3013 5.04102C19.3012 5.30818 19.2247 5.56996 19.0806 5.79492C18.9364 6.01989 18.7305 6.19885 18.4878 6.31055L18.4761 6.31543L17.9058 6.56934L17.9048 6.56836C17.3883 6.80108 16.9779 7.22003 16.7534 7.74023L16.7515 7.74414L16.5659 8.16602L16.5669 8.16699C16.0982 9.24169 14.613 9.28021 14.0806 8.2666L14.0317 8.16504L13.8481 7.74023V7.73926C13.623 7.21798 13.2101 6.80052 12.6919 6.56836V6.56738L12.1245 6.31543L12.1108 6.30957C11.8688 6.19756 11.6637 6.01867 11.52 5.79395C11.3764 5.56921 11.3003 5.30774 11.3003 5.04102C11.3003 4.77434 11.3764 4.51278 11.52 4.28809L11.6392 4.12891C11.7687 3.97853 11.9293 3.85646 12.1108 3.77246L12.1235 3.7666L12.6587 3.52832C13.1904 3.28907 13.6103 2.85488 13.8315 2.31543L13.8335 2.31055L14.0239 1.85352C14.1275 1.60258 14.3026 1.38722 14.5278 1.23535L14.6157 1.18164C14.8236 1.06298 15.0597 1 15.3003 1L15.4028 1.00391Z" fill="black" stroke="white" stroke-width="2"/>
</svg>
