<svg width="16" height="15" viewBox="0 0 16 15" fill="none" xmlns="http://www.w3.org/2000/svg">
<path d="M0.500244 0.5L0.706355 0.568444C1.73302 0.910667 2.24636 1.08178 2.53958 1.48933C2.8328 1.89689 2.83358 2.43822 2.83358 3.52011V5.55556C2.83358 7.75511 2.83358 8.85567 3.51724 9.53856C4.20013 10.2222 5.30069 10.2222 7.50024 10.2222H13.7225" stroke="black" stroke-linecap="round"/>
<path d="M2.8335 2.83301H11.7391C13.3374 2.83301 14.1369 2.83301 14.4831 3.35723C14.8284 3.88223 14.5142 4.61645 13.8842 6.08567L13.5505 6.86345C13.2565 7.54945 13.1095 7.89167 12.8178 8.08456C12.5254 8.27745 12.1521 8.27745 11.4062 8.27745H2.8335M4.77794 12.1663C5.08736 12.1663 5.38411 12.2893 5.6029 12.5081C5.82169 12.7268 5.94461 13.0236 5.94461 13.333C5.94461 13.6424 5.82169 13.9392 5.6029 14.158C5.38411 14.3768 5.08736 14.4997 4.77794 14.4997C4.46852 14.4997 4.17177 14.3768 3.95298 14.158C3.73419 13.9392 3.61127 13.6424 3.61127 13.333C3.61127 13.0236 3.73419 12.7268 3.95298 12.5081C4.17177 12.2893 4.46852 12.1663 4.77794 12.1663ZM11.7779 12.1663C12.0874 12.1663 12.3841 12.2893 12.6029 12.5081C12.8217 12.7268 12.9446 13.0236 12.9446 13.333C12.9446 13.6424 12.8217 13.9392 12.6029 14.158C12.3841 14.3768 12.0874 14.4997 11.7779 14.4997C11.4685 14.4997 11.1718 14.3768 10.953 14.158C10.7342 13.9392 10.6113 13.6424 10.6113 13.333C10.6113 13.0236 10.7342 12.7268 10.953 12.5081C11.1718 12.2893 11.4685 12.1663 11.7779 12.1663Z" stroke="black"/>
</svg>
