<svg width="18" height="18" viewBox="0 0 18 18" fill="none" xmlns="http://www.w3.org/2000/svg">
<path d="M1.50024 2.25L1.69899 2.316C2.68899 2.646 3.18399 2.811 3.46674 3.204C3.74949 3.597 3.75024 4.119 3.75024 5.16225V7.125C3.75024 9.246 3.75024 10.3073 4.40949 10.9658C5.06799 11.625 6.12924 11.625 8.25024 11.625H14.2502" stroke="white" stroke-width="1.25" stroke-linecap="round"/>
<path d="M3.75024 4.5H12.3377C13.879 4.5 14.65 4.5 14.9837 5.0055C15.3167 5.51175 15.0137 6.21975 14.4062 7.6365L14.0845 8.3865C13.801 9.048 13.6592 9.378 13.378 9.564C13.096 9.75 12.736 9.75 12.0167 9.75H3.75024M5.62524 13.5C5.92361 13.5 6.20976 13.6185 6.42074 13.8295C6.63172 14.0405 6.75024 14.3266 6.75024 14.625C6.75024 14.9234 6.63172 15.2095 6.42074 15.4205C6.20976 15.6315 5.92361 15.75 5.62524 15.75C5.32688 15.75 5.04073 15.6315 4.82975 15.4205C4.61877 15.2095 4.50024 14.9234 4.50024 14.625C4.50024 14.3266 4.61877 14.0405 4.82975 13.8295C5.04073 13.6185 5.32688 13.5 5.62524 13.5ZM12.3752 13.5C12.6736 13.5 12.9598 13.6185 13.1707 13.8295C13.3817 14.0405 13.5002 14.3266 13.5002 14.625C13.5002 14.9234 13.3817 15.2095 13.1707 15.4205C12.9598 15.6315 12.6736 15.75 12.3752 15.75C12.0769 15.75 11.7907 15.6315 11.5797 15.4205C11.3688 15.2095 11.2502 14.9234 11.2502 14.625C11.2502 14.3266 11.3688 14.0405 11.5797 13.8295C11.7907 13.6185 12.0769 13.5 12.3752 13.5Z" stroke="white" stroke-width="1.25"/>
</svg>
