<svg width="20" height="20" viewBox="0 0 20 20" fill="none" xmlns="http://www.w3.org/2000/svg">
<path d="M1.66699 2.5L1.88783 2.57333C2.98783 2.94 3.53783 3.12333 3.85199 3.56C4.16616 3.99667 4.16699 4.57667 4.16699 5.73583V7.91667C4.16699 10.2733 4.16699 11.4525 4.89949 12.1842C5.63116 12.9167 6.81033 12.9167 9.16699 12.9167H15.8337" stroke="black" stroke-width="1.25" stroke-linecap="round"/>
<path d="M4.16699 5H13.7087C15.4212 5 16.2778 5 16.6487 5.56167C17.0187 6.12417 16.682 6.91083 16.007 8.485L15.6495 9.31833C15.3345 10.0533 15.177 10.42 14.8645 10.6267C14.5512 10.8333 14.1512 10.8333 13.352 10.8333H4.16699M6.25033 15C6.58185 15 6.89979 15.1317 7.13421 15.3661C7.36863 15.6005 7.50033 15.9185 7.50033 16.25C7.50033 16.5815 7.36863 16.8995 7.13421 17.1339C6.89979 17.3683 6.58185 17.5 6.25033 17.5C5.9188 17.5 5.60086 17.3683 5.36644 17.1339C5.13202 16.8995 5.00033 16.5815 5.00033 16.25C5.00033 15.9185 5.13202 15.6005 5.36644 15.3661C5.60086 15.1317 5.9188 15 6.25033 15ZM13.7503 15C14.0818 15 14.3998 15.1317 14.6342 15.3661C14.8686 15.6005 15.0003 15.9185 15.0003 16.25C15.0003 16.5815 14.8686 16.8995 14.6342 17.1339C14.3998 17.3683 14.0818 17.5 13.7503 17.5C13.4188 17.5 13.1009 17.3683 12.8664 17.1339C12.632 16.8995 12.5003 16.5815 12.5003 16.25C12.5003 15.9185 12.632 15.6005 12.8664 15.3661C13.1009 15.1317 13.4188 15 13.7503 15Z" stroke="black" stroke-width="1.25"/>
</svg>
