<svg width="16" height="16" viewBox="0 0 16 16" fill="none" xmlns="http://www.w3.org/2000/svg">
<g clip-path="url(#clip0_971_7098)">
<path d="M15.0231 5.64009L10.3571 0.97276C9.72712 0.343427 8.89045 -0.00390625 7.99979 -0.00390625C7.10912 -0.00390625 6.27179 0.343427 5.64245 0.97276L0.976453 5.64009C-0.32288 6.93943 -0.32288 9.05343 0.976453 10.3528L5.64245 15.0201C6.27179 15.6494 7.10912 15.9968 7.99979 15.9968C8.89045 15.9968 9.72712 15.6494 10.3571 15.0201L15.0231 10.3528C15.6525 9.72343 15.9991 8.88676 15.9991 7.99676C15.9991 7.10676 15.6525 6.26943 15.0231 5.64009ZM14.0805 9.41009L9.41445 14.0774C8.65845 14.8328 7.34112 14.8328 6.58512 14.0774L1.91912 9.41009C1.13979 8.63076 1.13979 7.36209 1.91912 6.58276L6.58512 1.91543C6.96312 1.53809 7.46512 1.32943 7.99979 1.32943C8.53445 1.32943 9.03645 1.53743 9.41445 1.91543L14.0805 6.58276C14.4578 6.96009 14.6658 7.46209 14.6658 7.99676C14.6658 8.53143 14.4578 9.03276 14.0805 9.41009ZM8.99912 11.0001C8.99912 11.5521 8.55112 12.0001 7.99912 12.0001C7.44712 12.0001 6.99912 11.5521 6.99912 11.0001C6.99912 10.4481 7.44712 10.0001 7.99912 10.0001C8.55112 10.0001 8.99912 10.4481 8.99912 11.0001ZM7.33245 8.33343V4.66676C7.33245 4.29809 7.63112 4.00009 7.99912 4.00009C8.36712 4.00009 8.66579 4.29809 8.66579 4.66676V8.33343C8.66579 8.70209 8.36712 9.00009 7.99912 9.00009C7.63112 9.00009 7.33245 8.70209 7.33245 8.33343Z" fill="#D32F2F"/>
</g>
<defs>
<clipPath id="clip0_971_7098">
<rect width="16" height="16" fill="white"/>
</clipPath>
</defs>
</svg>
