<svg width="161" height="15" viewBox="0 0 161 15" fill="none" xmlns="http://www.w3.org/2000/svg">
<path fill-rule="evenodd" clip-rule="evenodd" d="M32.7831 7.04766C32.7831 4.71644 31.6539 2.87695 29.4957 2.87695C27.3284 2.87695 26.0171 4.71644 26.0171 7.02945C26.0171 9.77046 27.5652 11.1546 29.7871 11.1546C30.8708 11.1546 31.6903 10.9088 32.3096 10.5627V8.74145C31.6903 9.05106 30.9801 9.24229 30.0785 9.24229C29.1952 9.24229 28.4121 8.93268 28.3119 7.85813H32.7649C32.7649 7.73975 32.7831 7.26622 32.7831 7.04766ZM28.2846 6.18256C28.2846 5.15354 28.9129 4.72554 29.4866 4.72554C30.0421 4.72554 30.634 5.15354 30.634 6.18256H28.2846Z" fill="#635BFF"/>
<path fill-rule="evenodd" clip-rule="evenodd" d="M22.5023 2.87695C21.6099 2.87695 21.0362 3.29585 20.7175 3.58725L20.5991 3.02265H18.5957V13.6407L20.8723 13.158L20.8814 10.5809C21.2092 10.8177 21.6919 11.1546 22.4932 11.1546C24.1233 11.1546 25.6076 9.84331 25.6076 6.9566C25.5985 4.31576 24.0959 2.87695 22.5023 2.87695ZM21.9559 9.15123C21.4187 9.15123 21.0999 8.96 20.8814 8.72323L20.8723 5.34477C21.1091 5.08069 21.4369 4.89856 21.9559 4.89856C22.7846 4.89856 23.3583 5.82741 23.3583 7.02034C23.3583 8.2406 22.7937 9.15123 21.9559 9.15123Z" fill="#635BFF"/>
<path fill-rule="evenodd" clip-rule="evenodd" d="M17.7486 0L15.4629 0.482637V2.34033L17.7486 1.84859V0Z" fill="#635BFF"/>
<path fill-rule="evenodd" clip-rule="evenodd" d="M15.4629 3.03125H17.7486V10.9993H15.4629V3.03125Z" fill="#635BFF"/>
<path fill-rule="evenodd" clip-rule="evenodd" d="M13.0131 3.7055L12.8674 3.03163H10.9004V10.9997H13.177V5.59962C13.7143 4.89843 14.6249 5.02592 14.9072 5.12609V3.03163C14.6158 2.92235 13.5503 2.72201 13.0131 3.7055Z" fill="#635BFF"/>
<path fill-rule="evenodd" clip-rule="evenodd" d="M8.45982 1.05664L6.23787 1.53017L6.22876 8.82436C6.22876 10.1721 7.23957 11.1647 8.58731 11.1647C9.33403 11.1647 9.88041 11.0281 10.1809 10.8642V9.01559C9.88951 9.13398 8.45071 9.55287 8.45071 8.20513V4.97237H10.1809V3.03272H8.45071L8.45982 1.05664Z" fill="#635BFF"/>
<path fill-rule="evenodd" clip-rule="evenodd" d="M2.30391 5.34477C2.30391 4.98963 2.59531 4.85303 3.07795 4.85303C3.77003 4.85303 4.64424 5.06248 5.33632 5.43584V3.29585C4.58049 2.99534 3.83377 2.87695 3.07795 2.87695C1.22936 2.87695 0 3.84223 0 5.45405C0 7.96741 3.46041 7.56673 3.46041 8.65038C3.46041 9.06927 3.09616 9.20587 2.5862 9.20587C1.83038 9.20587 0.865103 8.89625 0.10017 8.47736V10.6447C0.947061 11.0089 1.80306 11.1637 2.5862 11.1637C4.48033 11.1637 5.78253 10.2258 5.78253 8.59574C5.77343 5.88205 2.30391 6.36469 2.30391 5.34477Z" fill="#635BFF"/>
<mask id="mask0_971_6942" style="mask-type:luminance" maskUnits="userSpaceOnUse" x="42" y="2" width="32" height="11">
<path d="M58.8066 5.47349C58.7892 6.84983 60.0332 7.61793 60.9704 8.07457C61.9333 8.54315 62.2567 8.84359 62.253 9.26255C62.2456 9.90386 61.4849 10.1868 60.7728 10.1979C59.5306 10.2172 58.8085 9.86252 58.2342 9.59423L57.7868 11.6881C58.3629 11.9537 59.4296 12.1852 60.5358 12.1953C63.1323 12.1953 64.8311 10.9136 64.8403 8.92628C64.8504 6.40422 61.3517 6.26456 61.3756 5.13721C61.3838 4.79543 61.71 4.43067 62.4248 4.33787C62.7785 4.29101 63.7552 4.25518 64.8623 4.76511L65.2969 2.73919C64.7016 2.52236 63.9362 2.31471 62.9834 2.31471C60.5395 2.31471 58.8204 3.61387 58.8066 5.47349ZM69.4728 2.48928C68.9987 2.48928 68.599 2.76583 68.4208 3.19031L64.7117 12.0465H67.3063L67.8227 10.6196H70.9934L71.2929 12.0465H73.5798L71.5842 2.48928H69.4728ZM69.8357 5.07106L70.5845 8.65983H68.5338L69.8357 5.07106ZM55.6607 2.48928L53.6155 12.0465H56.088L58.1323 2.48928H55.6607ZM52.003 2.48928L49.4295 8.99427L48.3885 3.46319C48.2664 2.84577 47.784 2.48928 47.2483 2.48928H43.0412L42.9824 2.76675C43.8461 2.95418 44.8273 3.25646 45.4218 3.57988C45.7856 3.77741 45.8895 3.95014 46.0089 4.41964L47.9806 12.0465H50.5936L54.5995 2.48928H52.003Z" fill="white"/>
</mask>
<g mask="url(#mask0_971_6942)">
<path d="M41.21 3.11288L71.3574 -7.9897L78.2158 10.6337L48.0687 21.7363" fill="#0A25D4"/>
</g>
<path fill-rule="evenodd" clip-rule="evenodd" d="M111.347 11.2881C108.764 13.1915 105.021 14.2071 101.798 14.2071C97.2797 14.2071 93.2117 12.5357 90.134 9.75605C89.8922 9.53741 90.1089 9.23953 90.399 9.40978C93.7204 11.3423 97.8271 12.5048 102.069 12.5048C104.93 12.5048 108.078 11.9129 110.971 10.6846C111.409 10.4988 111.774 10.9708 111.347 11.2881Z" fill="#007AFF"/>
<path fill-rule="evenodd" clip-rule="evenodd" d="M112.42 10.0594C112.091 9.63764 110.238 9.8601 109.406 9.95875C109.153 9.98973 109.114 9.76918 109.342 9.61057C110.818 8.57181 113.24 8.87164 113.523 9.21982C113.805 9.56996 113.449 11.9976 112.062 13.1563C111.849 13.3343 111.646 13.2395 111.741 13.0035C112.053 12.2259 112.751 10.483 112.42 10.0594Z" fill="#007AFF"/>
<path fill-rule="evenodd" clip-rule="evenodd" d="M109.465 2.27685V1.26711C109.465 1.11428 109.581 1.01176 109.72 1.01176H114.241C114.386 1.01176 114.502 1.11619 114.502 1.26711V2.13176C114.5 2.27685 114.378 2.46643 114.162 2.76626L111.819 6.11083C112.69 6.08959 113.608 6.21917 114.398 6.66409C114.576 6.76466 114.624 6.91171 114.638 7.05676V8.13422C114.638 8.28123 114.475 8.45339 114.305 8.36442C112.914 7.63517 111.067 7.55585 109.529 8.37215C109.372 8.4573 109.208 8.28705 109.208 8.14005V7.11675C109.208 6.95232 109.21 6.67183 109.374 6.4223L112.088 2.53029H109.726C109.581 2.53029 109.465 2.42777 109.465 2.27685ZM92.9742 8.57719H91.5989C91.4673 8.56755 91.3629 8.46889 91.3532 8.34313V1.28453C91.3532 1.1433 91.4712 1.03109 91.6182 1.03109H92.9007C93.0342 1.03687 93.1406 1.13944 93.1503 1.26706V2.18984H93.1754C93.51 1.29808 94.1387 0.882223 94.986 0.882223C95.8468 0.882223 96.3846 1.29808 96.7715 2.18984C97.1042 1.29808 97.8605 0.882223 98.6711 0.882223C99.2475 0.882223 99.8781 1.12015 100.263 1.65404C100.698 2.24788 100.609 3.11062 100.609 3.86697L100.607 8.32189C100.607 8.46312 100.489 8.57724 100.342 8.57724H98.9689C98.8316 8.56759 98.7213 8.45734 98.7213 8.32189V4.58075C98.7213 4.28283 98.7484 3.53999 98.6827 3.25762C98.5801 2.78368 98.2726 2.65018 97.874 2.65018C97.5413 2.65018 97.1931 2.87265 97.0519 3.2286C96.9107 3.58456 96.9243 4.18031 96.9243 4.58075V8.32185C96.9243 8.46307 96.8063 8.57719 96.6593 8.57719H95.2858C95.1466 8.56755 95.0382 8.4573 95.0382 8.32185L95.0363 4.58075C95.0363 3.79342 95.1659 2.63476 94.189 2.63476C93.2006 2.63476 93.2392 3.7644 93.2392 4.58075V8.32185C93.2392 8.46307 93.1212 8.57719 92.9742 8.57719ZM118.394 0.882178C120.435 0.882178 121.54 2.63472 121.54 4.86316C121.54 7.01614 120.319 8.72424 118.394 8.72424C116.39 8.72424 115.299 6.97165 115.299 4.7877C115.299 2.59024 116.404 0.882178 118.394 0.882178ZM118.406 2.32329C117.392 2.32329 117.328 3.70445 117.328 4.56524C117.328 5.42802 117.315 7.26953 118.394 7.26953C119.46 7.26953 119.51 5.78393 119.51 4.87862C119.51 4.28283 119.485 3.57096 119.305 3.00614C119.151 2.51478 118.843 2.32329 118.406 2.32329ZM124.186 8.57719H122.816C122.679 8.56755 122.569 8.4573 122.569 8.32185L122.567 1.26129C122.578 1.1317 122.692 1.03109 122.832 1.03109H124.106C124.226 1.03687 124.325 1.11819 124.352 1.2284V2.30783H124.377C124.762 1.34257 125.302 0.882178 126.252 0.882178C126.869 0.882178 127.47 1.1046 127.857 1.71394C128.217 2.27876 128.217 3.2286 128.217 3.91145V8.35473C128.202 8.47854 128.087 8.57719 127.952 8.57719H126.573C126.447 8.56755 126.343 8.47467 126.329 8.35473V4.52076C126.329 3.74894 126.418 2.61921 125.468 2.61921C125.134 2.61921 124.826 2.84363 124.673 3.18407C124.48 3.61549 124.455 4.0449 124.455 4.5208V8.32185C124.453 8.46307 124.333 8.57719 124.186 8.57719ZM105.861 5.20556C105.861 5.74136 105.875 6.18824 105.604 6.66405C105.385 7.05098 105.037 7.28886 104.652 7.28886C104.124 7.28886 103.815 6.88655 103.815 6.29267C103.815 5.12042 104.865 4.90764 105.861 4.90764V5.20556ZM107.248 8.55786C107.157 8.6391 107.026 8.64492 106.923 8.59075C106.467 8.21159 106.383 8.03557 106.134 7.67384C105.38 8.44374 104.844 8.67394 103.867 8.67394C102.708 8.67394 101.809 7.96011 101.809 6.53064C101.809 5.41447 102.412 4.65425 103.275 4.28283C104.022 3.95398 105.064 3.89594 105.861 3.80502V3.62709C105.861 3.30015 105.886 2.91326 105.693 2.63085C105.527 2.37746 105.205 2.27299 104.921 2.27299C104.397 2.27299 103.931 2.54184 103.817 3.09897C103.793 3.22278 103.702 3.34463 103.577 3.35045L102.244 3.20732C102.132 3.18216 102.006 3.09124 102.039 2.91908C102.344 1.30195 103.807 0.814453 105.115 0.814453C105.784 0.814453 106.658 0.992431 107.186 1.49926C107.856 2.12407 107.792 2.95775 107.792 3.86501V6.00831C107.792 6.65249 108.059 6.93486 108.31 7.28308C108.397 7.40689 108.417 7.55585 108.304 7.64868C108.024 7.88274 107.525 8.31798 107.25 8.56173L107.248 8.55786M87.8306 5.20556C87.8306 5.74136 87.8442 6.18824 87.5733 6.66405C87.3548 7.05098 87.0085 7.28886 86.6216 7.28886C86.0936 7.28886 85.786 6.88655 85.786 6.29267C85.786 5.12042 86.8364 4.90764 87.8306 4.90764V5.20556ZM89.2176 8.55786C89.1267 8.6391 88.9952 8.64492 88.8927 8.59075C88.4361 8.21159 88.3548 8.03557 88.1034 7.67384C87.349 8.44374 86.8151 8.67394 85.8363 8.67394C84.6795 8.67394 83.7781 7.96011 83.7781 6.53064C83.7781 5.41447 84.3836 4.65425 85.2443 4.28283C85.991 3.95398 87.0337 3.89594 87.8306 3.80502V3.62709C87.8306 3.30015 87.8558 2.91326 87.6643 2.63085C87.496 2.37746 87.1749 2.27299 86.8925 2.27299C86.3682 2.27299 85.9001 2.54184 85.786 3.09897C85.7628 3.22278 85.6718 3.34463 85.548 3.35045L84.2133 3.20732C84.1011 3.18216 83.9773 3.09124 84.0083 2.91908C84.3158 1.30195 85.7763 0.814453 87.084 0.814453C87.7532 0.814453 88.6276 0.992431 89.1557 1.49926C89.825 2.12407 89.7612 2.95775 89.7612 3.86501V6.00831C89.7612 6.65249 90.0281 6.93486 90.2796 7.28308C90.3686 7.40689 90.3879 7.55585 90.2757 7.64868C89.9952 7.88274 89.4962 8.31798 89.2215 8.56173L89.2176 8.55786Z" fill="#007AFF"/>
<path d="M146.35 1.49219H153.069V12.4666H146.35V1.49219Z" fill="#FF5F00"/>
<path d="M147.043 6.98193C147.042 5.92518 147.281 4.8821 147.743 3.93161C148.205 2.98111 148.877 2.14812 149.708 1.49567C148.679 0.686538 147.442 0.183386 146.14 0.0437201C144.838 -0.0959458 143.523 0.133509 142.345 0.705861C141.168 1.27821 140.175 2.17037 139.48 3.28036C138.785 4.39036 138.417 5.67341 138.417 6.98288C138.417 8.29235 138.785 9.5754 139.48 10.6854C140.175 11.7954 141.168 12.6875 142.345 13.2599C143.523 13.8322 144.838 14.0617 146.14 13.922C147.442 13.7824 148.679 13.2792 149.708 12.4701C148.877 11.8174 148.204 10.9841 147.743 10.0333C147.281 9.08243 147.041 8.03896 147.043 6.98189V6.98193Z" fill="#EB001B"/>
<path d="M161 6.98078C161 8.29035 160.632 9.57349 159.937 10.6835C159.242 11.7936 158.249 12.6857 157.071 13.258C155.893 13.8302 154.578 14.0595 153.276 13.9197C151.974 13.7798 150.737 13.2764 149.708 12.467C150.539 11.814 151.21 10.9808 151.672 10.0302C152.134 9.07967 152.374 8.03664 152.374 6.9798C152.374 5.92296 152.134 4.87992 151.672 3.92938C151.21 2.97884 150.539 2.14562 149.708 1.49259C150.737 0.683196 151.974 0.179793 153.276 0.039924C154.578 -0.0999453 155.893 0.129362 157.071 0.701635C158.249 1.27391 159.242 2.16605 159.937 3.27609C160.632 4.38613 161 5.66927 161 6.97884V6.98078Z" fill="#F79E1B"/>
</svg>
