<svg width="14" height="13" viewBox="0 0 14 13" fill="none" xmlns="http://www.w3.org/2000/svg">
<path d="M13.6613 2.66409C13.4441 2.14275 13.1309 1.67032 12.7392 1.27326C12.3472 0.875003 11.8851 0.558513 11.3779 0.341001C10.852 0.114542 10.288 -0.00136435 9.71847 1.21173e-05C8.91954 1.21173e-05 8.14005 0.226778 7.46266 0.655114C7.3006 0.757578 7.14665 0.870122 7.0008 0.992743C6.85495 0.870122 6.701 0.757578 6.53894 0.655114C5.86155 0.226778 5.08206 1.21173e-05 4.28313 1.21173e-05C3.70783 1.21173e-05 3.15036 0.114235 2.62368 0.341001C2.11483 0.559368 1.65621 0.873481 1.26241 1.27326C0.87022 1.66988 0.556934 2.14242 0.340317 2.66409C0.115059 3.20665 0 3.7828 0 4.37576C0 4.93511 0.110198 5.51798 0.328973 6.11093C0.512096 6.60646 0.774626 7.12046 1.11008 7.6395C1.64162 8.4609 2.37249 9.31757 3.28 10.186C4.78388 11.6255 6.27317 12.62 6.33637 12.6603L6.72045 12.9156C6.8906 13.0281 7.10938 13.0281 7.27954 12.9156L7.66361 12.6603C7.72681 12.6183 9.21448 11.6255 10.72 10.186C11.6275 9.31757 12.3584 8.4609 12.8899 7.6395C13.2254 7.12046 13.4895 6.60646 13.671 6.11093C13.8898 5.51798 14 4.93511 14 4.37576C14.0016 3.7828 13.8865 3.20665 13.6613 2.66409ZM7.0008 11.5869C7.0008 11.5869 1.23162 7.75541 1.23162 4.37576C1.23162 2.66409 2.59775 1.27662 4.28313 1.27662C5.46776 1.27662 6.49519 1.96196 7.0008 2.96309C7.50641 1.96196 8.53385 1.27662 9.71847 1.27662C11.4039 1.27662 12.77 2.66409 12.77 4.37576C12.77 7.75541 7.0008 11.5869 7.0008 11.5869Z" fill="black"/>
</svg>
