<svg width="18" height="18" viewBox="0 0 18 18" fill="none" xmlns="http://www.w3.org/2000/svg">
<path d="M0.928874 9.75667C0.612207 7.55917 0.453874 6.46 0.904707 5.52083C1.35554 4.58167 2.31387 4.01 4.23137 2.86833L5.38554 2.18083C7.12554 1.14333 7.99721 0.625 8.95887 0.625C9.92054 0.625 10.7914 1.14333 12.5322 2.18083L13.6864 2.86833C15.603 4.01 16.5622 4.58167 17.013 5.52083C17.4639 6.46 17.3047 7.55917 16.988 9.75667L16.7564 11.3708C16.3505 14.1942 16.1472 15.605 15.168 16.4483C14.1889 17.2917 12.753 17.2917 9.88054 17.2917H8.03721C5.16471 17.2917 3.72887 17.2917 2.74971 16.4483C1.77054 15.605 1.56721 14.1942 1.16137 11.3708L0.928874 9.75667Z" stroke="black" stroke-width="1.25"/>
<path d="M11.459 13.958H6.45898" stroke="black" stroke-width="1.25" stroke-linecap="round"/>
</svg>
