<svg width="20" height="20" viewBox="0 0 20 20" fill="none" xmlns="http://www.w3.org/2000/svg">
<path d="M9.99999 19.9992L9.41332 19.5033C7.57832 17.9508 1.59082 12.5633 1.59082 8.40917C1.59082 3.7725 5.36332 0 9.99999 0C14.6367 0 18.4092 3.7725 18.4092 8.40917C18.4092 12.5633 12.4217 17.9508 10.5867 19.5033L9.99999 19.9992ZM9.99999 0.833333C5.82249 0.833333 2.42415 4.23167 2.42415 8.40917C2.42415 12.3025 8.69415 17.8033 9.95082 18.8675L9.99999 18.9092L10.0492 18.8675C11.3058 17.8042 17.5758 12.3025 17.5758 8.40917C17.5758 4.23167 14.1775 0.833333 9.99999 0.833333Z" fill="black"/>
<path d="M10 11.6667C8.16169 11.6667 6.66669 10.1717 6.66669 8.33333C6.66669 6.495 8.16169 5 10 5C11.8384 5 13.3334 6.495 13.3334 8.33333C13.3334 10.1717 11.8384 11.6667 10 11.6667ZM10 5.83333C8.62169 5.83333 7.50002 6.955 7.50002 8.33333C7.50002 9.71167 8.62169 10.8333 10 10.8333C11.3784 10.8333 12.5 9.71167 12.5 8.33333C12.5 6.955 11.3784 5.83333 10 5.83333Z" fill="black"/>
</svg>
