<svg width="22" height="26" viewBox="0 0 22 26" fill="none" xmlns="http://www.w3.org/2000/svg">
<path d="M6.24994 25.0754L6.69981 22.218L5.69771 22.1947H0.912598L4.23801 1.10944C4.24791 1.04501 4.28063 0.986288 4.33021 0.943972C4.37979 0.901657 4.44292 0.878566 4.5081 0.87891H12.5765C15.255 0.87891 17.1035 1.4363 18.0687 2.53645C18.5211 3.05256 18.8093 3.59188 18.9486 4.1854C19.0948 4.80816 19.0974 5.55221 18.9546 6.45968L18.9443 6.52592V7.10739L19.3968 7.36372C19.7422 7.53871 20.0526 7.77543 20.3128 8.06218C20.6999 8.50344 20.9502 9.06427 21.056 9.72918C21.1653 10.413 21.1291 11.2267 20.9502 12.148C20.7438 13.2077 20.41 14.1307 19.9593 14.8859C19.5616 15.5625 19.0269 16.1484 18.3895 16.6062C17.7908 17.0312 17.0795 17.3537 16.2752 17.5602C15.4959 17.7632 14.6073 17.8655 13.6328 17.8655H13.0048C12.5558 17.8655 12.1197 18.0272 11.7774 18.3171C11.4355 18.6101 11.2087 19.0149 11.1374 19.4594L11.0901 19.7166L10.2953 24.7529L10.2592 24.9378C10.2497 24.9963 10.2334 25.0256 10.2093 25.0453C10.186 25.0644 10.1569 25.075 10.1267 25.0754H6.24994Z" fill="#253B80"/>
<path d="M19.8251 6.59375C19.8011 6.74772 19.7735 6.90513 19.7426 7.06684C18.6785 12.5298 15.0383 14.417 10.3891 14.417H8.0219C7.45333 14.417 6.97422 14.8299 6.88562 15.3907L5.67364 23.0772L5.33044 25.256C5.31676 25.3424 5.32198 25.4308 5.34574 25.515C5.36949 25.5992 5.41121 25.6772 5.46802 25.7438C5.52484 25.8103 5.5954 25.8638 5.67485 25.9004C5.7543 25.9371 5.84075 25.9561 5.92825 25.9561H10.1267C10.6239 25.9561 11.0463 25.5949 11.1245 25.1046L11.1658 24.8913L11.9563 19.8748L12.0071 19.5995C12.0845 19.1075 12.5077 18.7462 13.0049 18.7462H13.6328C17.7005 18.7462 20.8849 17.0947 21.8156 12.3156C22.2044 10.3191 22.0031 8.65213 20.9743 7.47972C20.6483 7.11704 20.2588 6.81682 19.8251 6.59375Z" fill="#179BD7"/>
<path d="M18.7122 6.1498C18.3725 6.05152 18.0268 5.97481 17.6774 5.92013C16.987 5.81403 16.2892 5.76311 15.5906 5.76788H9.26669C9.02602 5.7677 8.79322 5.85362 8.61038 6.01012C8.42754 6.16661 8.30672 6.38336 8.26975 6.62117L6.92445 15.142L6.88574 15.3906C6.92765 15.1193 7.06526 14.872 7.27368 14.6934C7.4821 14.5148 7.74755 14.4167 8.02202 14.4169H10.3892C15.0384 14.4169 18.6787 12.5288 19.7427 7.06674C19.7745 6.90503 19.8012 6.74762 19.8253 6.59365C19.5445 6.44641 19.2519 6.32297 18.9505 6.22463C18.8714 6.19842 18.792 6.17347 18.7122 6.1498Z" fill="#222D65"/>
<path d="M8.26958 6.62244C8.30623 6.38455 8.42699 6.16771 8.60992 6.01129C8.79286 5.85487 9.02583 5.76926 9.26652 5.77001H15.5905C16.3397 5.77001 17.039 5.81904 17.6772 5.92226C18.1091 5.99014 18.5351 6.09166 18.9512 6.2259C19.2651 6.32998 19.5567 6.45298 19.8259 6.59491C20.1425 4.5761 19.8234 3.20155 18.7318 1.95688C17.5284 0.586635 15.3565 0 12.5773 0H4.50893C3.94121 0 3.45694 0.412881 3.3692 0.974571L0.00852402 22.2766C-0.00712946 22.3755 -0.00117384 22.4767 0.0259812 22.573C0.0531362 22.6694 0.100846 22.7588 0.165829 22.835C0.230812 22.9111 0.311526 22.9723 0.402419 23.0143C0.493312 23.0564 0.592226 23.0782 0.692358 23.0783H5.67359L6.92428 15.1433L8.26958 6.62244Z" fill="#253B80"/>
</svg>
