<svg width="10" height="10" viewBox="0 0 10 10" fill="none" xmlns="http://www.w3.org/2000/svg">
<g clip-path="url(#clip0_948_8276)">
<path d="M8.75 4.25H5.75V1.25C5.75 1.05109 5.67098 0.860322 5.53033 0.71967C5.38968 0.579018 5.19891 0.5 5 0.5C4.80109 0.5 4.61032 0.579018 4.46967 0.71967C4.32902 0.860322 4.25 1.05109 4.25 1.25V4.25H1.25C1.05109 4.25 0.860322 4.32902 0.71967 4.46967C0.579018 4.61032 0.5 4.80109 0.5 5C0.5 5.19891 0.579018 5.38968 0.71967 5.53033C0.860322 5.67098 1.05109 5.75 1.25 5.75H4.25V8.75C4.25 8.94891 4.32902 9.13968 4.46967 9.28033C4.61032 9.42098 4.80109 9.5 5 9.5C5.19891 9.5 5.38968 9.42098 5.53033 9.28033C5.67098 9.13968 5.75 8.94891 5.75 8.75V5.75H8.75C8.94891 5.75 9.13968 5.67098 9.28033 5.53033C9.42098 5.38968 9.5 5.19891 9.5 5C9.5 4.80109 9.42098 4.61032 9.28033 4.46967C9.13968 4.32902 8.94891 4.25 8.75 4.25Z" fill="black"/>
</g>
<defs>
<clipPath id="clip0_948_8276">
<rect width="10" height="10" fill="white"/>
</clipPath>
</defs>
</svg>
