<svg width="34" height="34" viewBox="0 0 34 34" fill="none" xmlns="http://www.w3.org/2000/svg">
<path d="M20.75 9.5H12V8.25H20.75V9.5ZM20.75 14.5H12V15.75H20.75V14.5ZM8.25 20.125C7.56 20.125 7 20.685 7 21.375C7 22.065 7.56 22.625 8.25 22.625C8.94 22.625 9.5 22.065 9.5 21.375C9.5 20.685 8.94 20.125 8.25 20.125ZM8.25 7.625C7.56 7.625 7 8.185 7 8.875C7 9.565 7.56 10.125 8.25 10.125C8.94 10.125 9.5 9.565 9.5 8.875C9.5 8.185 8.94 7.625 8.25 7.625ZM8.25 13.875C7.56 13.875 7 14.435 7 15.125C7 15.815 7.56 16.375 8.25 16.375C8.94 16.375 9.5 15.815 9.5 15.125C9.5 14.435 8.94 13.875 8.25 13.875ZM32 22.6875C32 26.9787 25.125 31.3487 24.8325 31.5312L24.5 31.7412L24.1675 31.5312C23.875 31.3487 17 26.9775 17 22.6875C17 20.2412 18.8225 18.25 21.0625 18.25C22.5788 18.25 23.805 19.0763 24.5 20.4312C25.195 19.0763 26.4212 18.25 27.9375 18.25C30.1775 18.25 32 20.2412 32 22.6875ZM30.75 22.6875C30.75 20.93 29.4888 19.5 27.9375 19.5C26.255 19.5 25.125 21.0075 25.125 23.25H23.875C23.875 21.0075 22.745 19.5 21.0625 19.5C19.5112 19.5 18.25 20.93 18.25 22.6875C18.25 25.51 22.4862 28.9163 24.5 30.2588C26.5138 28.9175 30.75 25.51 30.75 22.6875ZM3.25 30.75V5.125C3.25 4.09125 4.09125 3.25 5.125 3.25H22.625C23.6588 3.25 24.5 4.09125 24.5 5.125V16.5062C24.9013 16.2987 25.3213 16.135 25.75 16.0125V5.125C25.75 3.40125 24.3475 2 22.625 2H5.125C3.4025 2 2 3.40125 2 5.125V32H20.5175C20.0525 31.6338 19.5562 31.2087 19.055 30.75H3.25ZM12 22H14.525C14.545 21.5713 14.6012 21.1562 14.6888 20.75H12V22Z" fill="black"/>
</svg>
