<svg width="20" height="20" viewBox="0 0 20 20" fill="none" xmlns="http://www.w3.org/2000/svg">
<path d="M5.83398 3.33301V2.08301" stroke="black" stroke-linecap="round"/>
<path d="M14.166 3.33301V2.08301" stroke="black" stroke-linecap="round"/>
<path d="M7.5 12.083L8.75 10.833V14.1663" stroke="black" stroke-linecap="round" stroke-linejoin="round"/>
<path d="M10.834 13.333V11.6663C10.834 11.2061 11.2071 10.833 11.6673 10.833C12.1276 10.833 12.5007 11.2061 12.5007 11.6663V13.333C12.5007 13.7933 12.1276 14.1663 11.6673 14.1663C11.2071 14.1663 10.834 13.7933 10.834 13.333Z" stroke="black" stroke-linecap="round"/>
<path d="M17.916 7.5H13.8535H8.95768M1.66602 7.5H4.89518" stroke="black" stroke-linecap="round"/>
<path d="M11.666 18.333H8.33268C5.18998 18.333 3.61864 18.333 2.64232 17.3567C1.66602 16.3804 1.66602 14.809 1.66602 11.6663V9.99967C1.66602 6.85697 1.66602 5.28563 2.64232 4.30932C3.61864 3.33301 5.18998 3.33301 8.33268 3.33301H11.666C14.8087 3.33301 16.3801 3.33301 17.3563 4.30932C18.3327 5.28563 18.3327 6.85697 18.3327 9.99967V11.6663C18.3327 14.809 18.3327 16.3804 17.3563 17.3567C16.812 17.901 16.0828 18.1418 14.9993 18.2484" stroke="black" stroke-linecap="round"/>
</svg>
