<svg width="20" height="20" viewBox="0 0 20 20" fill="none" xmlns="http://www.w3.org/2000/svg">
<g clip-path="url(#clip0_1447_2656)">
<path d="M18.3741 12.69L13.3833 7.79L13.8808 5.92417C14.0716 5.0625 14.1683 4.18083 14.1683 3.30333V0.416667C14.1683 0.186667 13.9816 0 13.7516 0C13.5216 0 13.3349 0.186667 13.3349 0.416667V2.53C11.8016 2.675 10.5483 3.56583 10.0016 4.02417C9.45495 3.56583 8.20161 2.675 6.66828 2.53V0.416667C6.66828 0.186667 6.48161 0 6.25161 0C6.02161 0 5.83495 0.186667 5.83495 0.416667V3.3025C5.83495 4.18417 5.93161 5.06583 6.12661 5.94083L6.61995 7.78917L1.64995 12.6692C0.748281 13.4358 0.567448 14.7475 1.23078 15.72C2.97328 18.28 6.49745 20 10.0008 20C13.5041 20 17.0291 18.2808 18.7708 15.72C19.4341 14.7475 19.2533 13.4358 18.3733 12.6892L18.3741 12.69ZM10.0008 5C10.1074 5 10.2141 4.96 10.2958 4.87833C10.3099 4.86417 11.6466 3.57333 13.3308 3.37333C13.3258 4.1675 13.2391 4.96417 13.0708 5.72583L12.5974 7.49917H7.40495L6.93578 5.7425C6.76328 4.96667 6.67661 4.17 6.67161 3.3725C8.35578 3.57167 9.69245 4.86333 9.70661 4.8775C9.78828 4.95833 9.89495 4.99917 10.0016 4.99917L10.0008 5ZM18.0824 15.2517C16.5124 17.5575 13.1891 19.1667 10.0008 19.1667C6.81245 19.1667 3.48911 17.5567 1.91911 15.2517C1.49661 14.6317 1.61328 13.795 2.21245 13.2842L7.25495 8.33417H12.7483L17.8124 13.305C18.3891 13.7958 18.5058 14.6325 18.0833 15.2525L18.0824 15.2517Z" fill="black"/>
</g>
<defs>
<clipPath id="clip0_1447_2656">
<rect width="20" height="20" fill="white"/>
</clipPath>
</defs>
</svg>
