<svg width="32" height="34" viewBox="0 0 32 34" fill="none" xmlns="http://www.w3.org/2000/svg">
<path d="M29.4255 20.7868C31.2232 21.9683 31.6836 24.3851 30.4922 26.1772C27.2707 31.0222 21.5446 34.1119 15.5691 34.0893C9.59357 34.1119 3.88157 30.7629 0.660067 25.9179C-0.53135 24.1258 -0.0709332 21.7104 1.72682 20.5289L9.9024 15.5848H21.2357L29.4255 20.7868ZM9.9024 12.75H21.2357L22.2812 9.61633C22.5277 8.5085 22.6524 7.37092 22.6524 6.23617V1.41667C22.6524 0.634667 22.0177 0 21.2357 0C20.4537 0 19.8191 0.634667 19.8191 1.41667V2.975C17.9349 3.32492 16.4856 4.29958 15.5691 5.11558C14.6525 4.29958 13.2032 3.32492 11.3191 2.975V1.41667C11.3191 0.634667 10.6844 0 9.9024 0C9.1204 0 8.48573 0.634667 8.48573 1.41667V6.23617C8.48573 7.37092 8.6104 8.5085 8.8569 9.61633L9.9024 12.75Z" fill="black"/>
</svg>
