<svg width="14" height="14" viewBox="0 0 14 14" fill="none" xmlns="http://www.w3.org/2000/svg">
<path d="M6.69442 8.75C6.53971 8.75 6.39134 8.81146 6.28194 8.92085C6.17254 9.03025 6.11108 9.17862 6.11108 9.33333V11.0833C6.11108 11.5475 5.92671 11.9926 5.59851 12.3208C5.27032 12.649 4.82519 12.8333 4.36106 12.8333H2.91671C2.45257 12.8333 2.00745 12.649 1.67925 12.3208C1.35106 11.9926 1.16668 11.5475 1.16668 11.0833V2.91667C1.16668 2.45254 1.35106 2.00742 1.67925 1.67923C2.00745 1.35104 2.45257 1.16667 2.91671 1.16667H4.36106C4.82519 1.16667 5.27032 1.35104 5.59851 1.67923C5.92671 2.00742 6.11108 2.45254 6.11108 2.91667V4.66667C6.11108 4.82138 6.17254 4.96975 6.28194 5.07915C6.39134 5.18854 6.53971 5.25 6.69442 5.25C6.84913 5.25 6.99751 5.18854 7.10691 5.07915C7.21631 4.96975 7.27776 4.82138 7.27776 4.66667V2.91667C7.27684 2.1434 6.96925 1.40208 6.42246 0.855295C5.87567 0.308514 5.13433 0.00092625 4.36106 0H2.91671C2.14343 0.00092625 1.40209 0.308514 0.855306 0.855295C0.308519 1.40208 0.000926263 2.1434 0 2.91667L0 11.0833C0.000926263 11.8566 0.308519 12.5979 0.855306 13.1447C1.40209 13.6915 2.14343 13.9991 2.91671 14H4.36106C5.13433 13.9991 5.87567 13.6915 6.42246 13.1447C6.96925 12.5979 7.27684 11.8566 7.27776 11.0833V9.33333C7.27776 9.17862 7.21631 9.03025 7.10691 8.92085C6.99751 8.81146 6.84913 8.75 6.69442 8.75Z" fill="#D32F2F"/>
<path d="M13.3393 5.76341L10.6641 3.08824C10.6103 3.03253 10.5459 2.98809 10.4747 2.95752C10.4036 2.92694 10.327 2.91085 10.2496 2.91018C10.1721 2.90951 10.0953 2.92426 10.0236 2.95359C9.9519 2.98293 9.88677 3.02624 9.832 3.08101C9.77723 3.13578 9.73391 3.20091 9.70458 3.2726C9.67525 3.34429 9.66049 3.4211 9.66116 3.49856C9.66184 3.57601 9.67793 3.65256 9.7085 3.72373C9.73907 3.7949 9.78351 3.85926 9.83923 3.91307L12.326 6.39982L3.50006 6.41732C3.34535 6.41732 3.19697 6.47878 3.08757 6.58818C2.97818 6.69757 2.91672 6.84595 2.91672 7.00066C2.91672 7.15537 2.97818 7.30374 3.08757 7.41314C3.19697 7.52253 3.34535 7.58399 3.50006 7.58399L12.3598 7.56649L9.83806 10.0882C9.78235 10.1421 9.73791 10.2064 9.70733 10.2776C9.67676 10.3488 9.66067 10.4253 9.66 10.5028C9.65932 10.5802 9.67408 10.657 9.70341 10.7287C9.73274 10.8004 9.77606 10.8655 9.83083 10.9203C9.8856 10.9751 9.95073 11.0184 10.0224 11.0477C10.0941 11.0771 10.1709 11.0918 10.2484 11.0911C10.3258 11.0905 10.4024 11.0744 10.4736 11.0438C10.5447 11.0132 10.6091 10.9688 10.6629 10.9131L13.3381 8.23791C13.6663 7.90989 13.8509 7.46494 13.8511 7.0009C13.8513 6.53686 13.6672 6.09174 13.3393 5.76341Z" fill="#D32F2F"/>
</svg>
