<svg width="20" height="20" viewBox="0 0 20 20" fill="none" xmlns="http://www.w3.org/2000/svg">
<path d="M10 10C11.3807 10 12.5 8.88071 12.5 7.5C12.5 6.11929 11.3807 5 10 5C8.61929 5 7.5 6.11929 7.5 7.5C7.5 8.88071 8.61929 10 10 10Z" stroke="black" stroke-width="1.25"/>
<path d="M9.99935 18.3346C14.6017 18.3346 18.3327 14.6037 18.3327 10.0013C18.3327 5.39893 14.6017 1.66797 9.99935 1.66797C5.39698 1.66797 1.66602 5.39893 1.66602 10.0013C1.66602 14.6037 5.39698 18.3346 9.99935 18.3346Z" stroke="black" stroke-width="1.25"/>
<path d="M14.9734 16.6667C14.8401 14.2567 14.1026 12.5 9.99844 12.5C5.89427 12.5 5.15677 14.2567 5.02344 16.6667" stroke="black" stroke-width="1.25" stroke-linecap="round"/>
</svg>
