<svg width="16" height="16" viewBox="0 0 16 16" fill="none" xmlns="http://www.w3.org/2000/svg">
<g clip-path="url(#clip0_840_3644)">
<path d="M0.781333 12.7469C0.281202 13.2469 0.000151033 13.925 0 14.6322L0 16.0009H1.36867C2.07585 16.0007 2.75402 15.7197 3.254 15.2196L12.1493 6.32423L9.67667 3.85156L0.781333 12.7469Z" fill="black"/>
<path d="M15.4298 0.569262C15.2675 0.406753 15.0747 0.277833 14.8625 0.189874C14.6503 0.101914 14.4228 0.0566406 14.1931 0.0566406C13.9634 0.0566406 13.736 0.101914 13.5238 0.189874C13.3116 0.277833 13.1188 0.406753 12.9565 0.569262L10.6191 2.90726L13.0918 5.37993L15.4298 3.0426C15.5923 2.88025 15.7212 2.68748 15.8092 2.47528C15.8972 2.26308 15.9424 2.03563 15.9424 1.80593C15.9424 1.57623 15.8972 1.34877 15.8092 1.13658C15.7212 0.924382 15.5923 0.731603 15.4298 0.569262Z" fill="black"/>
</g>
<defs>
<clipPath id="clip0_840_3644">
<rect width="16" height="16" fill="white"/>
</clipPath>
</defs>
</svg>
