<svg width="18" height="18" viewBox="0 0 18 18" fill="none" xmlns="http://www.w3.org/2000/svg">
<path d="M8.95801 8.95703C10.3387 8.95703 11.458 7.83774 11.458 6.45703C11.458 5.07632 10.3387 3.95703 8.95801 3.95703C7.5773 3.95703 6.45801 5.07632 6.45801 6.45703C6.45801 7.83774 7.5773 8.95703 8.95801 8.95703Z" stroke="black" stroke-width="1.25"/>
<path d="M8.95833 17.2917C13.5607 17.2917 17.2917 13.5607 17.2917 8.95833C17.2917 4.35596 13.5607 0.625 8.95833 0.625C4.35596 0.625 0.625 4.35596 0.625 8.95833C0.625 13.5607 4.35596 17.2917 8.95833 17.2917Z" stroke="black" stroke-width="1.25"/>
<path d="M13.9334 15.6237C13.8001 13.2137 13.0626 11.457 8.9584 11.457C4.85423 11.457 4.11673 13.2137 3.9834 15.6237" stroke="black" stroke-width="1.25" stroke-linecap="round"/>
</svg>
