<svg width="20" height="20" viewBox="0 0 20 20" fill="none" xmlns="http://www.w3.org/2000/svg">
<g clip-path="url(#clip0_1447_3107)">
<path d="M11.6667 10C11.6667 11.8383 13.1617 13.3333 15 13.3333C16.8383 13.3333 18.3333 11.8383 18.3333 10C18.3333 8.16167 16.8383 6.66667 15 6.66667C13.1617 6.66667 11.6667 8.16167 11.6667 10ZM15 7.5C16.3783 7.5 17.5 8.62167 17.5 10C17.5 11.3783 16.3783 12.5 15 12.5C13.6217 12.5 12.5008 11.3783 12.5008 10C12.5008 8.62167 13.6217 7.5 15 7.5ZM10 6.66667C11.8383 6.66667 13.3333 5.17167 13.3333 3.33333C13.3333 1.495 11.8383 0 10 0C8.16167 0 6.66667 1.495 6.66667 3.33333C6.66667 5.17167 8.16167 6.66667 10 6.66667ZM10 0.833333C11.3783 0.833333 12.5 1.955 12.5 3.33333C12.5 4.71167 11.3783 5.83333 10 5.83333C8.62167 5.83333 7.5 4.71167 7.5 3.33333C7.5 1.955 8.62167 0.833333 10 0.833333ZM5 13.3333C6.83833 13.3333 8.33333 11.8383 8.33333 10C8.33333 8.16167 6.83833 6.66667 5 6.66667C3.16167 6.66667 1.66667 8.16167 1.66667 10C1.66667 11.8383 3.16167 13.3333 5 13.3333ZM5 7.5C6.37833 7.5 7.5 8.62167 7.5 10C7.5 11.3783 6.37833 12.5 5 12.5C3.62167 12.5 2.5 11.3783 2.5 10C2.5 8.62167 3.62167 7.5 5 7.5ZM20 19.375V19.5833C20 19.8133 19.8133 20 19.5833 20C19.3533 20 19.1667 19.8133 19.1667 19.5833V19.375C19.1667 17.9275 18.45 16.5758 17.2483 15.7592C17.0533 15.625 16.775 15.6767 16.6167 15.8742L15.6117 17.1308C15.2367 17.6 14.4508 17.6017 14.0742 17.1308L13.0325 15.8292C12.8775 15.635 12.6008 15.5817 12.405 15.7108C11.16 16.5225 10.4167 17.8925 10.4167 19.3758V19.5842C10.4167 19.8142 10.23 20.0008 10 20.0008C9.77 20.0008 9.58333 19.8142 9.58333 19.5842V19.3758C9.58333 17.9283 8.86583 16.5767 7.665 15.76C7.46833 15.6275 7.19167 15.6775 7.03333 15.875L6.02833 17.1317C5.84083 17.3658 5.56083 17.5008 5.26 17.5008C4.96 17.5008 4.68 17.3658 4.49167 17.1317L3.44917 15.8292C3.29417 15.635 3.01917 15.5825 2.82167 15.7108C1.57667 16.5225 0.833333 17.8925 0.833333 19.3758V19.5842C0.833333 19.8142 0.646667 20.0008 0.416667 20.0008C0.186667 20.0008 0 19.8133 0 19.5833V19.375C0 17.6092 0.885 15.9775 2.36667 15.0117C2.91917 14.6525 3.67917 14.7825 4.1 15.3075L5.14167 16.61C5.21917 16.7083 5.29833 16.7092 5.37667 16.61L6.38167 15.3533C6.81 14.8183 7.57917 14.6933 8.1325 15.07C8.97583 15.6433 9.61167 16.4417 9.9975 17.3508C10.395 16.4092 11.0617 15.59 11.9492 15.0117C12.5008 14.6525 13.2617 14.7817 13.6833 15.3075L14.725 16.61C14.805 16.7108 14.8833 16.7067 14.96 16.61L15.965 15.3533C16.3942 14.8192 17.1633 14.6942 17.7158 15.0692C19.1458 16.0417 20 17.6508 20 19.375Z" fill="black"/>
</g>
<defs>
<clipPath id="clip0_1447_3107">
<rect width="20" height="20" fill="white"/>
</clipPath>
</defs>
</svg>
