<svg width="19" height="11" viewBox="0 0 19 11" fill="none" xmlns="http://www.w3.org/2000/svg">
<path fill-rule="evenodd" clip-rule="evenodd" d="M0 0.670187C0 0.492442 0.0732358 0.321978 0.203596 0.196293C0.333957 0.0706087 0.510764 0 0.695122 0H16.4512C16.6356 0 16.8124 0.0706087 16.9427 0.196293C17.0731 0.321978 17.1463 0.492442 17.1463 0.670187C17.1463 0.847931 17.0731 1.0184 16.9427 1.14408C16.8124 1.26977 16.6356 1.34037 16.4512 1.34037H0.695122C0.510764 1.34037 0.333957 1.26977 0.203596 1.14408C0.0732358 1.0184 0 0.847931 0 0.670187ZM17.1667 2.83981C18.3114 3.25264 19 4.37409 19 5.77701C19 6.81357 18.3521 7.78042 17.6719 8.53014C16.9693 9.30309 16.1157 9.97149 15.4827 10.421L15.4085 10.4746C15.0638 10.7212 14.6736 11 14.1341 11C13.5947 11 13.2045 10.7212 12.8598 10.4746L12.7856 10.421C12.1526 9.97149 11.299 9.30398 10.5964 8.53014C9.91615 7.78042 9.26829 6.81446 9.26829 5.77701C9.26829 4.37409 9.95693 3.25264 11.1016 2.83981C12.0682 2.49131 13.1684 2.71828 14.1341 3.44208C15.1008 2.71828 16.201 2.4922 17.1667 2.83981ZM16.6801 4.09529C16.201 3.92283 15.4363 4.01487 14.6309 4.80837C14.5662 4.87213 14.4889 4.92279 14.4036 4.95738C14.3183 4.99197 14.2267 5.00978 14.1341 5.00978C14.0416 5.00978 13.95 4.99197 13.8647 4.95738C13.7794 4.92279 13.7021 4.87213 13.6374 4.80837C12.832 4.01487 12.0682 3.92372 11.5891 4.09529C11.1164 4.26507 10.6585 4.78692 10.6585 5.77701C10.6585 6.30512 11.0135 6.95475 11.6428 7.64728C12.2508 8.31657 13.0145 8.91795 13.6105 9.34151C13.8357 9.50236 13.9497 9.58099 14.0405 9.62835C14.1017 9.66052 14.1184 9.66052 14.1323 9.65963H14.136C14.1499 9.65963 14.1675 9.65963 14.2278 9.62835C14.3186 9.58099 14.4326 9.50236 14.6578 9.3424C15.2547 8.91795 16.0175 8.31657 16.6255 7.64728C17.2557 6.95475 17.6098 6.30512 17.6098 5.77701C17.6098 4.78692 17.1519 4.26596 16.6801 4.09529ZM0 5.1381C0 4.96035 0.0732358 4.78989 0.203596 4.66421C0.333957 4.53852 0.510764 4.46791 0.695122 4.46791H6.2561C6.44046 4.46791 6.61726 4.53852 6.74762 4.66421C6.87798 4.78989 6.95122 4.96035 6.95122 5.1381C6.95122 5.31584 6.87798 5.48631 6.74762 5.61199C6.61726 5.73768 6.44046 5.80829 6.2561 5.80829H0.695122C0.510764 5.80829 0.333957 5.73768 0.203596 5.61199C0.0732358 5.48631 0 5.31584 0 5.1381ZM0 9.60601C0 9.42827 0.0732358 9.2578 0.203596 9.13212C0.333957 9.00643 0.510764 8.93582 0.695122 8.93582H7.18293C7.36728 8.93582 7.54409 9.00643 7.67445 9.13212C7.80481 9.2578 7.87805 9.42827 7.87805 9.60601C7.87805 9.78376 7.80481 9.95422 7.67445 10.0799C7.54409 10.2056 7.36728 10.2762 7.18293 10.2762H0.695122C0.510764 10.2762 0.333957 10.2056 0.203596 10.0799C0.0732358 9.95422 0 9.78376 0 9.60601Z" fill="black"/>
</svg>
